# xmcd CD database file
#
# Track frame offsets:
#	150
#	22890
#	41758
#	58958
#	90519
#	332550
#
# Disc length: 4440 seconds
#
# Revision: 5
# Processed by: cddbd v1.5.2PL0 Copyright (c) Steve Scherf et al.
# Submitted via: CDex 1.70beta2
#
DISCID=47115606
DTITLE=玉置成実 - Believe Reproduction～GUNDAM SEED EDITION～
DYEAR=2003
DGENRE=Anime
TTITLE0=Believe -Evidence01 Mix-
TTITLE1=Believe -FREEDOM G CONTROL MIX-
TTITLE2=Final Memory
TTITLE3=Final Memory -happy hardcore mix-
TTITLE4=data
TTITLE5=data
EXTD=YEAR: 2003
EXTT0=
EXTT1=
EXTT2=
EXTT3=
EXTT4=
EXTT5=
PLAYORDER=
